<mxfile host="Electron" agent="Mozilla/5.0 (X11; Linux x86_64) AppleWebKit/537.36 (KHTML, like Gecko) draw.io/24.7.17 Chrome/128.0.6613.36 Electron/32.0.1 Safari/537.36" version="24.7.17">
  <diagram name="Page-1" id="_IJzThWEjXdws65PzWOr">
    <mxGraphModel dx="1154" dy="685" grid="1" gridSize="10" guides="1" tooltips="1" connect="1" arrows="1" fold="1" page="1" pageScale="1" pageWidth="850" pageHeight="1100" math="1" shadow="0">
      <root>
        <mxCell id="0" />
        <mxCell id="1" parent="0" />
        <mxCell id="9p8t9NVOShXelaTlAj5N-86" value="&lt;font color=&quot;#b5739d&quot; style=&quot;font-size: 16px;&quot;&gt;&lt;b&gt;w/o Decimation&lt;/b&gt;&lt;/font&gt;" style="text;html=1;align=center;verticalAlign=middle;whiteSpace=wrap;rounded=0;" parent="1" vertex="1">
          <mxGeometry x="150" y="160" width="100" height="30" as="geometry" />
        </mxCell>
        <mxCell id="9p8t9NVOShXelaTlAj5N-87" value="&lt;font color=&quot;#b5739d&quot; style=&quot;font-size: 16px;&quot;&gt;&lt;b&gt;w/ Decimation&lt;/b&gt;&lt;/font&gt;" style="text;html=1;align=center;verticalAlign=middle;whiteSpace=wrap;rounded=0;" parent="1" vertex="1">
          <mxGeometry x="130" y="360" width="100" height="30" as="geometry" />
        </mxCell>
        <mxCell id="9p8t9NVOShXelaTlAj5N-99" value="" style="group;strokeWidth=2;" parent="1" vertex="1" connectable="0">
          <mxGeometry x="270" y="200" width="60" height="40" as="geometry" />
        </mxCell>
        <mxCell id="9p8t9NVOShXelaTlAj5N-93" value="" style="group;strokeWidth=2;" parent="9p8t9NVOShXelaTlAj5N-99" vertex="1" connectable="0">
          <mxGeometry width="20" height="40" as="geometry" />
        </mxCell>
        <mxCell id="9p8t9NVOShXelaTlAj5N-89" value="" style="endArrow=none;html=1;rounded=0;strokeWidth=2;" parent="9p8t9NVOShXelaTlAj5N-93" edge="1">
          <mxGeometry width="50" height="50" relative="1" as="geometry">
            <mxPoint y="40" as="sourcePoint" />
            <mxPoint x="20" as="targetPoint" />
          </mxGeometry>
        </mxCell>
        <mxCell id="9p8t9NVOShXelaTlAj5N-90" value="" style="endArrow=none;html=1;rounded=0;strokeWidth=2;" parent="9p8t9NVOShXelaTlAj5N-93" edge="1">
          <mxGeometry width="50" height="50" relative="1" as="geometry">
            <mxPoint x="20" y="40" as="sourcePoint" />
            <mxPoint as="targetPoint" />
          </mxGeometry>
        </mxCell>
        <mxCell id="9p8t9NVOShXelaTlAj5N-94" value="" style="group;strokeWidth=2;" parent="9p8t9NVOShXelaTlAj5N-99" vertex="1" connectable="0">
          <mxGeometry x="40" width="20" height="40" as="geometry" />
        </mxCell>
        <mxCell id="9p8t9NVOShXelaTlAj5N-95" value="" style="endArrow=none;html=1;rounded=0;strokeWidth=2;" parent="9p8t9NVOShXelaTlAj5N-94" edge="1">
          <mxGeometry width="50" height="50" relative="1" as="geometry">
            <mxPoint y="40" as="sourcePoint" />
            <mxPoint x="20" as="targetPoint" />
          </mxGeometry>
        </mxCell>
        <mxCell id="9p8t9NVOShXelaTlAj5N-96" value="" style="endArrow=none;html=1;rounded=0;strokeWidth=2;" parent="9p8t9NVOShXelaTlAj5N-94" edge="1">
          <mxGeometry width="50" height="50" relative="1" as="geometry">
            <mxPoint x="20" y="40" as="sourcePoint" />
            <mxPoint as="targetPoint" />
          </mxGeometry>
        </mxCell>
        <mxCell id="9p8t9NVOShXelaTlAj5N-97" value="" style="endArrow=none;html=1;rounded=0;strokeWidth=2;" parent="9p8t9NVOShXelaTlAj5N-99" edge="1">
          <mxGeometry width="50" height="50" relative="1" as="geometry">
            <mxPoint x="20" y="40" as="sourcePoint" />
            <mxPoint x="40" y="40" as="targetPoint" />
          </mxGeometry>
        </mxCell>
        <mxCell id="9p8t9NVOShXelaTlAj5N-98" value="" style="endArrow=none;html=1;rounded=0;strokeWidth=2;" parent="9p8t9NVOShXelaTlAj5N-99" edge="1">
          <mxGeometry width="50" height="50" relative="1" as="geometry">
            <mxPoint x="20" as="sourcePoint" />
            <mxPoint x="40" as="targetPoint" />
          </mxGeometry>
        </mxCell>
        <mxCell id="9p8t9NVOShXelaTlAj5N-156" value="$$n$$" style="text;html=1;align=center;verticalAlign=middle;whiteSpace=wrap;rounded=0;" parent="9p8t9NVOShXelaTlAj5N-99" vertex="1">
          <mxGeometry y="5" width="60" height="30" as="geometry" />
        </mxCell>
        <mxCell id="9p8t9NVOShXelaTlAj5N-120" value="" style="group;strokeWidth=2;" parent="1" vertex="1" connectable="0">
          <mxGeometry x="330" y="200" width="40" height="40" as="geometry" />
        </mxCell>
        <mxCell id="9p8t9NVOShXelaTlAj5N-121" value="" style="group;strokeWidth=2;" parent="9p8t9NVOShXelaTlAj5N-120" vertex="1" connectable="0">
          <mxGeometry x="20" width="20" height="40" as="geometry" />
        </mxCell>
        <mxCell id="9p8t9NVOShXelaTlAj5N-122" value="" style="endArrow=none;html=1;rounded=0;strokeWidth=2;" parent="9p8t9NVOShXelaTlAj5N-121" edge="1">
          <mxGeometry width="50" height="50" relative="1" as="geometry">
            <mxPoint y="40" as="sourcePoint" />
            <mxPoint x="20" as="targetPoint" />
          </mxGeometry>
        </mxCell>
        <mxCell id="9p8t9NVOShXelaTlAj5N-123" value="" style="endArrow=none;html=1;rounded=0;strokeWidth=2;" parent="9p8t9NVOShXelaTlAj5N-121" edge="1">
          <mxGeometry width="50" height="50" relative="1" as="geometry">
            <mxPoint x="20" y="40" as="sourcePoint" />
            <mxPoint as="targetPoint" />
          </mxGeometry>
        </mxCell>
        <mxCell id="9p8t9NVOShXelaTlAj5N-124" value="" style="endArrow=none;html=1;rounded=0;strokeWidth=2;strokeColor=#00CC00;" parent="9p8t9NVOShXelaTlAj5N-120" edge="1">
          <mxGeometry width="50" height="50" relative="1" as="geometry">
            <mxPoint y="40" as="sourcePoint" />
            <mxPoint x="20" y="40" as="targetPoint" />
          </mxGeometry>
        </mxCell>
        <mxCell id="9p8t9NVOShXelaTlAj5N-125" value="" style="endArrow=none;html=1;rounded=0;strokeWidth=2;strokeColor=#00CC00;" parent="9p8t9NVOShXelaTlAj5N-120" edge="1">
          <mxGeometry width="50" height="50" relative="1" as="geometry">
            <mxPoint as="sourcePoint" />
            <mxPoint x="20" as="targetPoint" />
          </mxGeometry>
        </mxCell>
        <mxCell id="9p8t9NVOShXelaTlAj5N-157" value="$$n+1$$" style="text;html=1;align=center;verticalAlign=middle;whiteSpace=wrap;rounded=0;" parent="9p8t9NVOShXelaTlAj5N-120" vertex="1">
          <mxGeometry x="-20" y="5" width="60" height="30" as="geometry" />
        </mxCell>
        <mxCell id="9p8t9NVOShXelaTlAj5N-126" value="" style="group;strokeWidth=2;" parent="1" vertex="1" connectable="0">
          <mxGeometry x="370" y="200" width="40" height="40" as="geometry" />
        </mxCell>
        <mxCell id="9p8t9NVOShXelaTlAj5N-127" value="" style="group;strokeWidth=2;" parent="9p8t9NVOShXelaTlAj5N-126" vertex="1" connectable="0">
          <mxGeometry x="20" width="20" height="40" as="geometry" />
        </mxCell>
        <mxCell id="9p8t9NVOShXelaTlAj5N-128" value="" style="endArrow=none;html=1;rounded=0;strokeWidth=2;" parent="9p8t9NVOShXelaTlAj5N-127" edge="1">
          <mxGeometry width="50" height="50" relative="1" as="geometry">
            <mxPoint y="40" as="sourcePoint" />
            <mxPoint x="20" as="targetPoint" />
          </mxGeometry>
        </mxCell>
        <mxCell id="9p8t9NVOShXelaTlAj5N-129" value="" style="endArrow=none;html=1;rounded=0;strokeWidth=2;" parent="9p8t9NVOShXelaTlAj5N-127" edge="1">
          <mxGeometry width="50" height="50" relative="1" as="geometry">
            <mxPoint x="20" y="40" as="sourcePoint" />
            <mxPoint as="targetPoint" />
          </mxGeometry>
        </mxCell>
        <mxCell id="9p8t9NVOShXelaTlAj5N-130" value="" style="endArrow=none;html=1;rounded=0;strokeWidth=2;strokeColor=#00CC00;" parent="9p8t9NVOShXelaTlAj5N-126" edge="1">
          <mxGeometry width="50" height="50" relative="1" as="geometry">
            <mxPoint y="40" as="sourcePoint" />
            <mxPoint x="20" y="40" as="targetPoint" />
          </mxGeometry>
        </mxCell>
        <mxCell id="9p8t9NVOShXelaTlAj5N-131" value="" style="endArrow=none;html=1;rounded=0;strokeWidth=2;strokeColor=#00CC00;" parent="9p8t9NVOShXelaTlAj5N-126" edge="1">
          <mxGeometry width="50" height="50" relative="1" as="geometry">
            <mxPoint as="sourcePoint" />
            <mxPoint x="20" as="targetPoint" />
          </mxGeometry>
        </mxCell>
        <mxCell id="9p8t9NVOShXelaTlAj5N-158" value="$$n+2$$" style="text;html=1;align=center;verticalAlign=middle;whiteSpace=wrap;rounded=0;" parent="9p8t9NVOShXelaTlAj5N-126" vertex="1">
          <mxGeometry x="-20" y="5" width="60" height="30" as="geometry" />
        </mxCell>
        <mxCell id="9p8t9NVOShXelaTlAj5N-132" value="" style="group;strokeWidth=2;" parent="1" vertex="1" connectable="0">
          <mxGeometry x="410" y="200" width="40" height="40" as="geometry" />
        </mxCell>
        <mxCell id="9p8t9NVOShXelaTlAj5N-133" value="" style="group;strokeWidth=2;" parent="9p8t9NVOShXelaTlAj5N-132" vertex="1" connectable="0">
          <mxGeometry x="20" width="20" height="40" as="geometry" />
        </mxCell>
        <mxCell id="9p8t9NVOShXelaTlAj5N-134" value="" style="endArrow=none;html=1;rounded=0;strokeWidth=2;" parent="9p8t9NVOShXelaTlAj5N-133" edge="1">
          <mxGeometry width="50" height="50" relative="1" as="geometry">
            <mxPoint y="40" as="sourcePoint" />
            <mxPoint x="20" as="targetPoint" />
          </mxGeometry>
        </mxCell>
        <mxCell id="9p8t9NVOShXelaTlAj5N-135" value="" style="endArrow=none;html=1;rounded=0;strokeWidth=2;" parent="9p8t9NVOShXelaTlAj5N-133" edge="1">
          <mxGeometry width="50" height="50" relative="1" as="geometry">
            <mxPoint x="20" y="40" as="sourcePoint" />
            <mxPoint as="targetPoint" />
          </mxGeometry>
        </mxCell>
        <mxCell id="9p8t9NVOShXelaTlAj5N-136" value="" style="endArrow=none;html=1;rounded=0;strokeWidth=2;strokeColor=#00CC00;" parent="9p8t9NVOShXelaTlAj5N-132" edge="1">
          <mxGeometry width="50" height="50" relative="1" as="geometry">
            <mxPoint y="40" as="sourcePoint" />
            <mxPoint x="20" y="40" as="targetPoint" />
          </mxGeometry>
        </mxCell>
        <mxCell id="9p8t9NVOShXelaTlAj5N-137" value="" style="endArrow=none;html=1;rounded=0;strokeWidth=2;strokeColor=#00CC00;" parent="9p8t9NVOShXelaTlAj5N-132" edge="1">
          <mxGeometry width="50" height="50" relative="1" as="geometry">
            <mxPoint as="sourcePoint" />
            <mxPoint x="20" as="targetPoint" />
          </mxGeometry>
        </mxCell>
        <mxCell id="9p8t9NVOShXelaTlAj5N-161" value="&lt;font style=&quot;font-size: 18px;&quot;&gt;$$...$$&lt;/font&gt;" style="text;html=1;align=center;verticalAlign=middle;whiteSpace=wrap;rounded=0;" parent="9p8t9NVOShXelaTlAj5N-132" vertex="1">
          <mxGeometry x="-20" y="1" width="60" height="30" as="geometry" />
        </mxCell>
        <mxCell id="9p8t9NVOShXelaTlAj5N-138" value="" style="group;strokeWidth=2;" parent="1" vertex="1" connectable="0">
          <mxGeometry x="450" y="200" width="40" height="40" as="geometry" />
        </mxCell>
        <mxCell id="9p8t9NVOShXelaTlAj5N-139" value="" style="group;strokeWidth=2;" parent="9p8t9NVOShXelaTlAj5N-138" vertex="1" connectable="0">
          <mxGeometry x="20" width="20" height="40" as="geometry" />
        </mxCell>
        <mxCell id="9p8t9NVOShXelaTlAj5N-140" value="" style="endArrow=none;html=1;rounded=0;strokeWidth=2;" parent="9p8t9NVOShXelaTlAj5N-139" edge="1">
          <mxGeometry width="50" height="50" relative="1" as="geometry">
            <mxPoint y="40" as="sourcePoint" />
            <mxPoint x="20" as="targetPoint" />
          </mxGeometry>
        </mxCell>
        <mxCell id="9p8t9NVOShXelaTlAj5N-141" value="" style="endArrow=none;html=1;rounded=0;strokeWidth=2;" parent="9p8t9NVOShXelaTlAj5N-139" edge="1">
          <mxGeometry width="50" height="50" relative="1" as="geometry">
            <mxPoint x="20" y="40" as="sourcePoint" />
            <mxPoint as="targetPoint" />
          </mxGeometry>
        </mxCell>
        <mxCell id="9p8t9NVOShXelaTlAj5N-142" value="" style="endArrow=none;html=1;rounded=0;strokeWidth=2;strokeColor=#00CC00;" parent="9p8t9NVOShXelaTlAj5N-138" edge="1">
          <mxGeometry width="50" height="50" relative="1" as="geometry">
            <mxPoint y="40" as="sourcePoint" />
            <mxPoint x="20" y="40" as="targetPoint" />
          </mxGeometry>
        </mxCell>
        <mxCell id="9p8t9NVOShXelaTlAj5N-143" value="" style="endArrow=none;html=1;rounded=0;strokeWidth=2;strokeColor=#00CC00;" parent="9p8t9NVOShXelaTlAj5N-138" edge="1">
          <mxGeometry width="50" height="50" relative="1" as="geometry">
            <mxPoint as="sourcePoint" />
            <mxPoint x="20" as="targetPoint" />
          </mxGeometry>
        </mxCell>
        <mxCell id="9p8t9NVOShXelaTlAj5N-159" value="&lt;font style=&quot;font-size: 8px;&quot;&gt;$$n+L-1$$&lt;/font&gt;" style="text;html=1;align=center;verticalAlign=middle;whiteSpace=wrap;rounded=0;" parent="9p8t9NVOShXelaTlAj5N-138" vertex="1">
          <mxGeometry x="-20" y="5" width="60" height="30" as="geometry" />
        </mxCell>
        <mxCell id="9p8t9NVOShXelaTlAj5N-144" value="" style="group;strokeWidth=2;" parent="1" vertex="1" connectable="0">
          <mxGeometry x="490" y="200" width="40" height="40" as="geometry" />
        </mxCell>
        <mxCell id="9p8t9NVOShXelaTlAj5N-145" value="" style="group;strokeWidth=2;" parent="9p8t9NVOShXelaTlAj5N-144" vertex="1" connectable="0">
          <mxGeometry x="20" width="20" height="40" as="geometry" />
        </mxCell>
        <mxCell id="9p8t9NVOShXelaTlAj5N-146" value="" style="endArrow=none;html=1;rounded=0;strokeWidth=2;" parent="9p8t9NVOShXelaTlAj5N-145" edge="1">
          <mxGeometry width="50" height="50" relative="1" as="geometry">
            <mxPoint y="40" as="sourcePoint" />
            <mxPoint x="20" as="targetPoint" />
          </mxGeometry>
        </mxCell>
        <mxCell id="9p8t9NVOShXelaTlAj5N-147" value="" style="endArrow=none;html=1;rounded=0;strokeWidth=2;" parent="9p8t9NVOShXelaTlAj5N-145" edge="1">
          <mxGeometry width="50" height="50" relative="1" as="geometry">
            <mxPoint x="20" y="40" as="sourcePoint" />
            <mxPoint as="targetPoint" />
          </mxGeometry>
        </mxCell>
        <mxCell id="9p8t9NVOShXelaTlAj5N-148" value="" style="endArrow=none;html=1;rounded=0;strokeWidth=2;strokeColor=#FF0000;" parent="9p8t9NVOShXelaTlAj5N-144" edge="1">
          <mxGeometry width="50" height="50" relative="1" as="geometry">
            <mxPoint y="40" as="sourcePoint" />
            <mxPoint x="20" y="40" as="targetPoint" />
          </mxGeometry>
        </mxCell>
        <mxCell id="9p8t9NVOShXelaTlAj5N-149" value="" style="endArrow=none;html=1;rounded=0;strokeWidth=2;strokeColor=#FF0000;" parent="9p8t9NVOShXelaTlAj5N-144" edge="1">
          <mxGeometry width="50" height="50" relative="1" as="geometry">
            <mxPoint as="sourcePoint" />
            <mxPoint x="20" as="targetPoint" />
          </mxGeometry>
        </mxCell>
        <mxCell id="9p8t9NVOShXelaTlAj5N-160" value="&lt;font color=&quot;#ff0000&quot;&gt;&lt;b&gt;$$n+L$$&lt;/b&gt;&lt;/font&gt;" style="text;html=1;align=center;verticalAlign=middle;whiteSpace=wrap;rounded=0;" parent="9p8t9NVOShXelaTlAj5N-144" vertex="1">
          <mxGeometry x="-20" y="5" width="60" height="30" as="geometry" />
        </mxCell>
        <mxCell id="9p8t9NVOShXelaTlAj5N-167" value="" style="group;strokeWidth=2;" parent="1" vertex="1" connectable="0">
          <mxGeometry x="530" y="200" width="40" height="40" as="geometry" />
        </mxCell>
        <mxCell id="9p8t9NVOShXelaTlAj5N-168" value="" style="group;strokeWidth=2;" parent="9p8t9NVOShXelaTlAj5N-167" vertex="1" connectable="0">
          <mxGeometry x="20" width="20" height="40" as="geometry" />
        </mxCell>
        <mxCell id="9p8t9NVOShXelaTlAj5N-169" value="" style="endArrow=none;html=1;rounded=0;strokeWidth=2;" parent="9p8t9NVOShXelaTlAj5N-168" edge="1">
          <mxGeometry width="50" height="50" relative="1" as="geometry">
            <mxPoint y="40" as="sourcePoint" />
            <mxPoint x="20" as="targetPoint" />
          </mxGeometry>
        </mxCell>
        <mxCell id="9p8t9NVOShXelaTlAj5N-170" value="" style="endArrow=none;html=1;rounded=0;strokeWidth=2;" parent="9p8t9NVOShXelaTlAj5N-168" edge="1">
          <mxGeometry width="50" height="50" relative="1" as="geometry">
            <mxPoint x="20" y="40" as="sourcePoint" />
            <mxPoint as="targetPoint" />
          </mxGeometry>
        </mxCell>
        <mxCell id="9p8t9NVOShXelaTlAj5N-171" value="" style="endArrow=none;html=1;rounded=0;strokeWidth=2;strokeColor=#0000FF;" parent="9p8t9NVOShXelaTlAj5N-167" edge="1">
          <mxGeometry width="50" height="50" relative="1" as="geometry">
            <mxPoint y="40" as="sourcePoint" />
            <mxPoint x="20" y="40" as="targetPoint" />
          </mxGeometry>
        </mxCell>
        <mxCell id="9p8t9NVOShXelaTlAj5N-172" value="" style="endArrow=none;html=1;rounded=0;strokeWidth=2;strokeColor=#0000FF;" parent="9p8t9NVOShXelaTlAj5N-167" edge="1">
          <mxGeometry width="50" height="50" relative="1" as="geometry">
            <mxPoint as="sourcePoint" />
            <mxPoint x="20" as="targetPoint" />
          </mxGeometry>
        </mxCell>
        <mxCell id="9p8t9NVOShXelaTlAj5N-202" value="&lt;font style=&quot;font-size: 7px;&quot;&gt;$$n+L+1$$&lt;/font&gt;" style="text;html=1;align=center;verticalAlign=middle;whiteSpace=wrap;rounded=0;" parent="9p8t9NVOShXelaTlAj5N-167" vertex="1">
          <mxGeometry x="-20" y="5" width="60" height="30" as="geometry" />
        </mxCell>
        <mxCell id="9p8t9NVOShXelaTlAj5N-174" value="" style="group;strokeWidth=2;" parent="1" vertex="1" connectable="0">
          <mxGeometry x="570" y="200" width="40" height="40" as="geometry" />
        </mxCell>
        <mxCell id="9p8t9NVOShXelaTlAj5N-175" value="" style="group;strokeWidth=2;" parent="9p8t9NVOShXelaTlAj5N-174" vertex="1" connectable="0">
          <mxGeometry x="20" width="20" height="40" as="geometry" />
        </mxCell>
        <mxCell id="9p8t9NVOShXelaTlAj5N-176" value="" style="endArrow=none;html=1;rounded=0;strokeWidth=2;" parent="9p8t9NVOShXelaTlAj5N-175" edge="1">
          <mxGeometry width="50" height="50" relative="1" as="geometry">
            <mxPoint y="40" as="sourcePoint" />
            <mxPoint x="20" as="targetPoint" />
          </mxGeometry>
        </mxCell>
        <mxCell id="9p8t9NVOShXelaTlAj5N-177" value="" style="endArrow=none;html=1;rounded=0;strokeWidth=2;" parent="9p8t9NVOShXelaTlAj5N-175" edge="1">
          <mxGeometry width="50" height="50" relative="1" as="geometry">
            <mxPoint x="20" y="40" as="sourcePoint" />
            <mxPoint as="targetPoint" />
          </mxGeometry>
        </mxCell>
        <mxCell id="9p8t9NVOShXelaTlAj5N-178" value="" style="endArrow=none;html=1;rounded=0;strokeWidth=2;strokeColor=#0000FF;" parent="9p8t9NVOShXelaTlAj5N-174" edge="1">
          <mxGeometry width="50" height="50" relative="1" as="geometry">
            <mxPoint y="40" as="sourcePoint" />
            <mxPoint x="20" y="40" as="targetPoint" />
          </mxGeometry>
        </mxCell>
        <mxCell id="9p8t9NVOShXelaTlAj5N-179" value="" style="endArrow=none;html=1;rounded=0;strokeWidth=2;strokeColor=#0000FF;" parent="9p8t9NVOShXelaTlAj5N-174" edge="1">
          <mxGeometry width="50" height="50" relative="1" as="geometry">
            <mxPoint as="sourcePoint" />
            <mxPoint x="20" as="targetPoint" />
          </mxGeometry>
        </mxCell>
        <mxCell id="9p8t9NVOShXelaTlAj5N-180" value="&lt;font style=&quot;font-size: 7px;&quot;&gt;$$n+L+3$$&lt;/font&gt;" style="text;html=1;align=center;verticalAlign=middle;whiteSpace=wrap;rounded=0;" parent="9p8t9NVOShXelaTlAj5N-174" vertex="1">
          <mxGeometry x="-20" y="5" width="60" height="30" as="geometry" />
        </mxCell>
        <mxCell id="9p8t9NVOShXelaTlAj5N-181" value="" style="group;strokeWidth=2;" parent="1" vertex="1" connectable="0">
          <mxGeometry x="610" y="200" width="40" height="40" as="geometry" />
        </mxCell>
        <mxCell id="9p8t9NVOShXelaTlAj5N-182" value="" style="group;strokeWidth=2;" parent="9p8t9NVOShXelaTlAj5N-181" vertex="1" connectable="0">
          <mxGeometry x="20" width="20" height="40" as="geometry" />
        </mxCell>
        <mxCell id="9p8t9NVOShXelaTlAj5N-183" value="" style="endArrow=none;html=1;rounded=0;strokeWidth=2;" parent="9p8t9NVOShXelaTlAj5N-182" edge="1">
          <mxGeometry width="50" height="50" relative="1" as="geometry">
            <mxPoint y="40" as="sourcePoint" />
            <mxPoint x="20" as="targetPoint" />
          </mxGeometry>
        </mxCell>
        <mxCell id="9p8t9NVOShXelaTlAj5N-184" value="" style="endArrow=none;html=1;rounded=0;strokeWidth=2;" parent="9p8t9NVOShXelaTlAj5N-182" edge="1">
          <mxGeometry width="50" height="50" relative="1" as="geometry">
            <mxPoint x="20" y="40" as="sourcePoint" />
            <mxPoint as="targetPoint" />
          </mxGeometry>
        </mxCell>
        <mxCell id="9p8t9NVOShXelaTlAj5N-185" value="" style="endArrow=none;html=1;rounded=0;strokeWidth=2;strokeColor=#0000FF;" parent="9p8t9NVOShXelaTlAj5N-181" edge="1">
          <mxGeometry width="50" height="50" relative="1" as="geometry">
            <mxPoint y="40" as="sourcePoint" />
            <mxPoint x="20" y="40" as="targetPoint" />
          </mxGeometry>
        </mxCell>
        <mxCell id="9p8t9NVOShXelaTlAj5N-186" value="" style="endArrow=none;html=1;rounded=0;strokeWidth=2;strokeColor=#0000FF;" parent="9p8t9NVOShXelaTlAj5N-181" edge="1">
          <mxGeometry width="50" height="50" relative="1" as="geometry">
            <mxPoint as="sourcePoint" />
            <mxPoint x="20" as="targetPoint" />
          </mxGeometry>
        </mxCell>
        <mxCell id="9p8t9NVOShXelaTlAj5N-187" value="&lt;font style=&quot;font-size: 18px;&quot;&gt;$$...$$&lt;/font&gt;" style="text;html=1;align=center;verticalAlign=middle;whiteSpace=wrap;rounded=0;" parent="9p8t9NVOShXelaTlAj5N-181" vertex="1">
          <mxGeometry x="-20" y="1" width="60" height="30" as="geometry" />
        </mxCell>
        <mxCell id="9p8t9NVOShXelaTlAj5N-188" value="" style="group;strokeWidth=2;" parent="1" vertex="1" connectable="0">
          <mxGeometry x="650" y="200" width="40" height="40" as="geometry" />
        </mxCell>
        <mxCell id="9p8t9NVOShXelaTlAj5N-189" value="" style="group;strokeWidth=2;" parent="9p8t9NVOShXelaTlAj5N-188" vertex="1" connectable="0">
          <mxGeometry x="20" width="20" height="40" as="geometry" />
        </mxCell>
        <mxCell id="9p8t9NVOShXelaTlAj5N-190" value="" style="endArrow=none;html=1;rounded=0;strokeWidth=2;" parent="9p8t9NVOShXelaTlAj5N-189" edge="1">
          <mxGeometry width="50" height="50" relative="1" as="geometry">
            <mxPoint y="40" as="sourcePoint" />
            <mxPoint x="20" as="targetPoint" />
          </mxGeometry>
        </mxCell>
        <mxCell id="9p8t9NVOShXelaTlAj5N-191" value="" style="endArrow=none;html=1;rounded=0;strokeWidth=2;" parent="9p8t9NVOShXelaTlAj5N-189" edge="1">
          <mxGeometry width="50" height="50" relative="1" as="geometry">
            <mxPoint x="20" y="40" as="sourcePoint" />
            <mxPoint as="targetPoint" />
          </mxGeometry>
        </mxCell>
        <mxCell id="9p8t9NVOShXelaTlAj5N-192" value="" style="endArrow=none;html=1;rounded=0;strokeWidth=2;strokeColor=#0000FF;" parent="9p8t9NVOShXelaTlAj5N-188" edge="1">
          <mxGeometry width="50" height="50" relative="1" as="geometry">
            <mxPoint y="40" as="sourcePoint" />
            <mxPoint x="20" y="40" as="targetPoint" />
          </mxGeometry>
        </mxCell>
        <mxCell id="9p8t9NVOShXelaTlAj5N-193" value="" style="endArrow=none;html=1;rounded=0;strokeWidth=2;strokeColor=#0000FF;" parent="9p8t9NVOShXelaTlAj5N-188" edge="1">
          <mxGeometry width="50" height="50" relative="1" as="geometry">
            <mxPoint as="sourcePoint" />
            <mxPoint x="20" as="targetPoint" />
          </mxGeometry>
        </mxCell>
        <mxCell id="9p8t9NVOShXelaTlAj5N-194" value="&lt;font style=&quot;font-size: 5px;&quot;&gt;$$n+2L-1$$&lt;/font&gt;" style="text;html=1;align=center;verticalAlign=middle;whiteSpace=wrap;rounded=0;" parent="9p8t9NVOShXelaTlAj5N-188" vertex="1">
          <mxGeometry x="-20" y="5" width="60" height="30" as="geometry" />
        </mxCell>
        <mxCell id="9p8t9NVOShXelaTlAj5N-195" value="" style="group;strokeWidth=2;" parent="1" vertex="1" connectable="0">
          <mxGeometry x="690" y="200" width="40" height="40" as="geometry" />
        </mxCell>
        <mxCell id="9p8t9NVOShXelaTlAj5N-196" value="" style="group;strokeWidth=2;" parent="9p8t9NVOShXelaTlAj5N-195" vertex="1" connectable="0">
          <mxGeometry x="20" width="20" height="40" as="geometry" />
        </mxCell>
        <mxCell id="9p8t9NVOShXelaTlAj5N-197" value="" style="endArrow=none;html=1;rounded=0;strokeWidth=2;" parent="9p8t9NVOShXelaTlAj5N-196" edge="1">
          <mxGeometry width="50" height="50" relative="1" as="geometry">
            <mxPoint y="40" as="sourcePoint" />
            <mxPoint x="20" as="targetPoint" />
          </mxGeometry>
        </mxCell>
        <mxCell id="9p8t9NVOShXelaTlAj5N-198" value="" style="endArrow=none;html=1;rounded=0;strokeWidth=2;" parent="9p8t9NVOShXelaTlAj5N-196" edge="1">
          <mxGeometry width="50" height="50" relative="1" as="geometry">
            <mxPoint x="20" y="40" as="sourcePoint" />
            <mxPoint as="targetPoint" />
          </mxGeometry>
        </mxCell>
        <mxCell id="9p8t9NVOShXelaTlAj5N-199" value="" style="endArrow=none;html=1;rounded=0;strokeWidth=2;strokeColor=#FF0000;" parent="9p8t9NVOShXelaTlAj5N-195" edge="1">
          <mxGeometry width="50" height="50" relative="1" as="geometry">
            <mxPoint y="40" as="sourcePoint" />
            <mxPoint x="20" y="40" as="targetPoint" />
          </mxGeometry>
        </mxCell>
        <mxCell id="9p8t9NVOShXelaTlAj5N-200" value="" style="endArrow=none;html=1;rounded=0;strokeWidth=2;strokeColor=#FF0000;" parent="9p8t9NVOShXelaTlAj5N-195" edge="1">
          <mxGeometry width="50" height="50" relative="1" as="geometry">
            <mxPoint as="sourcePoint" />
            <mxPoint x="20" as="targetPoint" />
          </mxGeometry>
        </mxCell>
        <mxCell id="9p8t9NVOShXelaTlAj5N-201" value="&lt;font size=&quot;1&quot; color=&quot;#ff0000&quot;&gt;&lt;b style=&quot;&quot;&gt;$$n+2L$$&lt;/b&gt;&lt;/font&gt;" style="text;html=1;align=center;verticalAlign=middle;whiteSpace=wrap;rounded=0;" parent="9p8t9NVOShXelaTlAj5N-195" vertex="1">
          <mxGeometry x="-20" y="5" width="60" height="30" as="geometry" />
        </mxCell>
        <mxCell id="9p8t9NVOShXelaTlAj5N-203" value="&lt;font color=&quot;#ea6b66&quot; style=&quot;font-size: 16px;&quot;&gt;freq integrator&lt;/font&gt;" style="text;html=1;align=center;verticalAlign=middle;whiteSpace=wrap;rounded=0;" parent="1" vertex="1">
          <mxGeometry x="150" y="205" width="100" height="30" as="geometry" />
        </mxCell>
        <mxCell id="9p8t9NVOShXelaTlAj5N-204" value="&lt;font color=&quot;#ea6b66&quot; style=&quot;font-size: 16px;&quot;&gt;phase integrator&lt;/font&gt;" style="text;html=1;align=center;verticalAlign=middle;whiteSpace=wrap;rounded=0;" parent="1" vertex="1">
          <mxGeometry x="150" y="285" width="100" height="30" as="geometry" />
        </mxCell>
        <mxCell id="9p8t9NVOShXelaTlAj5N-205" value="" style="group;strokeWidth=2;" parent="1" vertex="1" connectable="0">
          <mxGeometry x="270" y="280" width="60" height="40" as="geometry" />
        </mxCell>
        <mxCell id="9p8t9NVOShXelaTlAj5N-206" value="" style="group;strokeWidth=2;" parent="9p8t9NVOShXelaTlAj5N-205" vertex="1" connectable="0">
          <mxGeometry width="20" height="40" as="geometry" />
        </mxCell>
        <mxCell id="9p8t9NVOShXelaTlAj5N-207" value="" style="endArrow=none;html=1;rounded=0;strokeWidth=2;" parent="9p8t9NVOShXelaTlAj5N-206" edge="1">
          <mxGeometry width="50" height="50" relative="1" as="geometry">
            <mxPoint y="40" as="sourcePoint" />
            <mxPoint x="20" as="targetPoint" />
          </mxGeometry>
        </mxCell>
        <mxCell id="9p8t9NVOShXelaTlAj5N-208" value="" style="endArrow=none;html=1;rounded=0;strokeWidth=2;" parent="9p8t9NVOShXelaTlAj5N-206" edge="1">
          <mxGeometry width="50" height="50" relative="1" as="geometry">
            <mxPoint x="20" y="40" as="sourcePoint" />
            <mxPoint as="targetPoint" />
          </mxGeometry>
        </mxCell>
        <mxCell id="9p8t9NVOShXelaTlAj5N-209" value="" style="group;strokeWidth=2;" parent="9p8t9NVOShXelaTlAj5N-205" vertex="1" connectable="0">
          <mxGeometry x="40" width="20" height="40" as="geometry" />
        </mxCell>
        <mxCell id="9p8t9NVOShXelaTlAj5N-210" value="" style="endArrow=none;html=1;rounded=0;strokeWidth=2;" parent="9p8t9NVOShXelaTlAj5N-209" edge="1">
          <mxGeometry width="50" height="50" relative="1" as="geometry">
            <mxPoint y="40" as="sourcePoint" />
            <mxPoint x="20" as="targetPoint" />
          </mxGeometry>
        </mxCell>
        <mxCell id="9p8t9NVOShXelaTlAj5N-211" value="" style="endArrow=none;html=1;rounded=0;strokeWidth=2;" parent="9p8t9NVOShXelaTlAj5N-209" edge="1">
          <mxGeometry width="50" height="50" relative="1" as="geometry">
            <mxPoint x="20" y="40" as="sourcePoint" />
            <mxPoint as="targetPoint" />
          </mxGeometry>
        </mxCell>
        <mxCell id="9p8t9NVOShXelaTlAj5N-212" value="" style="endArrow=none;html=1;rounded=0;strokeWidth=2;" parent="9p8t9NVOShXelaTlAj5N-205" edge="1">
          <mxGeometry width="50" height="50" relative="1" as="geometry">
            <mxPoint x="20" y="39" as="sourcePoint" />
            <mxPoint x="40" y="39" as="targetPoint" />
          </mxGeometry>
        </mxCell>
        <mxCell id="9p8t9NVOShXelaTlAj5N-213" value="" style="endArrow=none;html=1;rounded=0;strokeWidth=2;" parent="9p8t9NVOShXelaTlAj5N-205" edge="1">
          <mxGeometry width="50" height="50" relative="1" as="geometry">
            <mxPoint x="20" as="sourcePoint" />
            <mxPoint x="40" as="targetPoint" />
          </mxGeometry>
        </mxCell>
        <mxCell id="9p8t9NVOShXelaTlAj5N-215" value="" style="group;strokeWidth=2;" parent="1" vertex="1" connectable="0">
          <mxGeometry x="330" y="280" width="40" height="40" as="geometry" />
        </mxCell>
        <mxCell id="9p8t9NVOShXelaTlAj5N-216" value="" style="group;strokeWidth=2;" parent="9p8t9NVOShXelaTlAj5N-215" vertex="1" connectable="0">
          <mxGeometry x="20" width="20" height="40" as="geometry" />
        </mxCell>
        <mxCell id="9p8t9NVOShXelaTlAj5N-217" value="" style="endArrow=none;html=1;rounded=0;strokeWidth=2;" parent="9p8t9NVOShXelaTlAj5N-216" edge="1">
          <mxGeometry width="50" height="50" relative="1" as="geometry">
            <mxPoint y="40" as="sourcePoint" />
            <mxPoint x="20" as="targetPoint" />
          </mxGeometry>
        </mxCell>
        <mxCell id="9p8t9NVOShXelaTlAj5N-218" value="" style="endArrow=none;html=1;rounded=0;strokeWidth=2;" parent="9p8t9NVOShXelaTlAj5N-216" edge="1">
          <mxGeometry width="50" height="50" relative="1" as="geometry">
            <mxPoint x="20" y="40" as="sourcePoint" />
            <mxPoint as="targetPoint" />
          </mxGeometry>
        </mxCell>
        <mxCell id="9p8t9NVOShXelaTlAj5N-219" value="" style="endArrow=none;html=1;rounded=0;strokeWidth=2;" parent="9p8t9NVOShXelaTlAj5N-215" edge="1">
          <mxGeometry width="50" height="50" relative="1" as="geometry">
            <mxPoint y="39" as="sourcePoint" />
            <mxPoint x="20" y="39" as="targetPoint" />
          </mxGeometry>
        </mxCell>
        <mxCell id="9p8t9NVOShXelaTlAj5N-220" value="" style="endArrow=none;html=1;rounded=0;strokeWidth=2;" parent="9p8t9NVOShXelaTlAj5N-215" edge="1">
          <mxGeometry width="50" height="50" relative="1" as="geometry">
            <mxPoint as="sourcePoint" />
            <mxPoint x="20" as="targetPoint" />
          </mxGeometry>
        </mxCell>
        <mxCell id="9p8t9NVOShXelaTlAj5N-222" value="" style="group;strokeWidth=2;" parent="1" vertex="1" connectable="0">
          <mxGeometry x="370" y="280" width="40" height="40" as="geometry" />
        </mxCell>
        <mxCell id="9p8t9NVOShXelaTlAj5N-223" value="" style="group;strokeWidth=2;" parent="9p8t9NVOShXelaTlAj5N-222" vertex="1" connectable="0">
          <mxGeometry x="20" width="20" height="40" as="geometry" />
        </mxCell>
        <mxCell id="9p8t9NVOShXelaTlAj5N-224" value="" style="endArrow=none;html=1;rounded=0;strokeWidth=2;" parent="9p8t9NVOShXelaTlAj5N-223" edge="1">
          <mxGeometry width="50" height="50" relative="1" as="geometry">
            <mxPoint y="40" as="sourcePoint" />
            <mxPoint x="20" as="targetPoint" />
          </mxGeometry>
        </mxCell>
        <mxCell id="9p8t9NVOShXelaTlAj5N-225" value="" style="endArrow=none;html=1;rounded=0;strokeWidth=2;" parent="9p8t9NVOShXelaTlAj5N-223" edge="1">
          <mxGeometry width="50" height="50" relative="1" as="geometry">
            <mxPoint x="20" y="40" as="sourcePoint" />
            <mxPoint as="targetPoint" />
          </mxGeometry>
        </mxCell>
        <mxCell id="9p8t9NVOShXelaTlAj5N-226" value="" style="endArrow=none;html=1;rounded=0;strokeWidth=2;" parent="9p8t9NVOShXelaTlAj5N-222" edge="1">
          <mxGeometry width="50" height="50" relative="1" as="geometry">
            <mxPoint y="39" as="sourcePoint" />
            <mxPoint x="20" y="39" as="targetPoint" />
          </mxGeometry>
        </mxCell>
        <mxCell id="9p8t9NVOShXelaTlAj5N-227" value="" style="endArrow=none;html=1;rounded=0;strokeWidth=2;" parent="9p8t9NVOShXelaTlAj5N-222" edge="1">
          <mxGeometry width="50" height="50" relative="1" as="geometry">
            <mxPoint as="sourcePoint" />
            <mxPoint x="20" as="targetPoint" />
          </mxGeometry>
        </mxCell>
        <mxCell id="9p8t9NVOShXelaTlAj5N-229" value="" style="group;strokeWidth=2;" parent="1" vertex="1" connectable="0">
          <mxGeometry x="410" y="280" width="40" height="40" as="geometry" />
        </mxCell>
        <mxCell id="9p8t9NVOShXelaTlAj5N-230" value="" style="group;strokeWidth=2;" parent="9p8t9NVOShXelaTlAj5N-229" vertex="1" connectable="0">
          <mxGeometry x="20" width="20" height="40" as="geometry" />
        </mxCell>
        <mxCell id="9p8t9NVOShXelaTlAj5N-231" value="" style="endArrow=none;html=1;rounded=0;strokeWidth=2;" parent="9p8t9NVOShXelaTlAj5N-230" edge="1">
          <mxGeometry width="50" height="50" relative="1" as="geometry">
            <mxPoint y="40" as="sourcePoint" />
            <mxPoint x="20" as="targetPoint" />
          </mxGeometry>
        </mxCell>
        <mxCell id="9p8t9NVOShXelaTlAj5N-232" value="" style="endArrow=none;html=1;rounded=0;strokeWidth=2;" parent="9p8t9NVOShXelaTlAj5N-230" edge="1">
          <mxGeometry width="50" height="50" relative="1" as="geometry">
            <mxPoint x="20" y="40" as="sourcePoint" />
            <mxPoint as="targetPoint" />
          </mxGeometry>
        </mxCell>
        <mxCell id="9p8t9NVOShXelaTlAj5N-233" value="" style="endArrow=none;html=1;rounded=0;strokeWidth=2;" parent="9p8t9NVOShXelaTlAj5N-229" edge="1">
          <mxGeometry width="50" height="50" relative="1" as="geometry">
            <mxPoint y="40" as="sourcePoint" />
            <mxPoint x="20" y="40" as="targetPoint" />
          </mxGeometry>
        </mxCell>
        <mxCell id="9p8t9NVOShXelaTlAj5N-234" value="" style="endArrow=none;html=1;rounded=0;strokeWidth=2;" parent="9p8t9NVOShXelaTlAj5N-229" edge="1">
          <mxGeometry width="50" height="50" relative="1" as="geometry">
            <mxPoint as="sourcePoint" />
            <mxPoint x="20" as="targetPoint" />
          </mxGeometry>
        </mxCell>
        <mxCell id="9p8t9NVOShXelaTlAj5N-235" value="&lt;font style=&quot;font-size: 18px;&quot;&gt;$$...$$&lt;/font&gt;" style="text;html=1;align=center;verticalAlign=middle;whiteSpace=wrap;rounded=0;" parent="9p8t9NVOShXelaTlAj5N-229" vertex="1">
          <mxGeometry x="-20" y="1" width="60" height="30" as="geometry" />
        </mxCell>
        <mxCell id="9p8t9NVOShXelaTlAj5N-236" value="" style="group;strokeWidth=2;" parent="1" vertex="1" connectable="0">
          <mxGeometry x="450" y="280" width="40" height="40" as="geometry" />
        </mxCell>
        <mxCell id="9p8t9NVOShXelaTlAj5N-237" value="" style="group;strokeWidth=2;" parent="9p8t9NVOShXelaTlAj5N-236" vertex="1" connectable="0">
          <mxGeometry x="20" width="20" height="40" as="geometry" />
        </mxCell>
        <mxCell id="9p8t9NVOShXelaTlAj5N-238" value="" style="endArrow=none;html=1;rounded=0;strokeWidth=2;" parent="9p8t9NVOShXelaTlAj5N-237" edge="1">
          <mxGeometry width="50" height="50" relative="1" as="geometry">
            <mxPoint y="40" as="sourcePoint" />
            <mxPoint x="20" as="targetPoint" />
          </mxGeometry>
        </mxCell>
        <mxCell id="9p8t9NVOShXelaTlAj5N-239" value="" style="endArrow=none;html=1;rounded=0;strokeWidth=2;" parent="9p8t9NVOShXelaTlAj5N-237" edge="1">
          <mxGeometry width="50" height="50" relative="1" as="geometry">
            <mxPoint x="20" y="40" as="sourcePoint" />
            <mxPoint as="targetPoint" />
          </mxGeometry>
        </mxCell>
        <mxCell id="9p8t9NVOShXelaTlAj5N-240" value="" style="endArrow=none;html=1;rounded=0;strokeWidth=2;" parent="9p8t9NVOShXelaTlAj5N-236" edge="1">
          <mxGeometry width="50" height="50" relative="1" as="geometry">
            <mxPoint y="40" as="sourcePoint" />
            <mxPoint x="20" y="40" as="targetPoint" />
          </mxGeometry>
        </mxCell>
        <mxCell id="9p8t9NVOShXelaTlAj5N-241" value="" style="endArrow=none;html=1;rounded=0;strokeWidth=2;" parent="9p8t9NVOShXelaTlAj5N-236" edge="1">
          <mxGeometry width="50" height="50" relative="1" as="geometry">
            <mxPoint as="sourcePoint" />
            <mxPoint x="20" as="targetPoint" />
          </mxGeometry>
        </mxCell>
        <mxCell id="9p8t9NVOShXelaTlAj5N-243" value="" style="group;strokeWidth=2;" parent="1" vertex="1" connectable="0">
          <mxGeometry x="490" y="280" width="40" height="40" as="geometry" />
        </mxCell>
        <mxCell id="9p8t9NVOShXelaTlAj5N-244" value="" style="group;strokeWidth=2;" parent="9p8t9NVOShXelaTlAj5N-243" vertex="1" connectable="0">
          <mxGeometry x="20" width="20" height="40" as="geometry" />
        </mxCell>
        <mxCell id="9p8t9NVOShXelaTlAj5N-245" value="" style="endArrow=none;html=1;rounded=0;strokeWidth=2;" parent="9p8t9NVOShXelaTlAj5N-244" edge="1">
          <mxGeometry width="50" height="50" relative="1" as="geometry">
            <mxPoint y="40" as="sourcePoint" />
            <mxPoint x="20" as="targetPoint" />
          </mxGeometry>
        </mxCell>
        <mxCell id="9p8t9NVOShXelaTlAj5N-246" value="" style="endArrow=none;html=1;rounded=0;strokeWidth=2;" parent="9p8t9NVOShXelaTlAj5N-244" edge="1">
          <mxGeometry width="50" height="50" relative="1" as="geometry">
            <mxPoint x="20" y="40" as="sourcePoint" />
            <mxPoint as="targetPoint" />
          </mxGeometry>
        </mxCell>
        <mxCell id="9p8t9NVOShXelaTlAj5N-247" value="" style="endArrow=none;html=1;rounded=0;strokeWidth=2;strokeColor=#FF0000;" parent="9p8t9NVOShXelaTlAj5N-243" edge="1">
          <mxGeometry width="50" height="50" relative="1" as="geometry">
            <mxPoint y="40" as="sourcePoint" />
            <mxPoint x="20" y="40" as="targetPoint" />
          </mxGeometry>
        </mxCell>
        <mxCell id="9p8t9NVOShXelaTlAj5N-248" value="" style="endArrow=none;html=1;rounded=0;strokeWidth=2;strokeColor=#FF0000;" parent="9p8t9NVOShXelaTlAj5N-243" edge="1">
          <mxGeometry width="50" height="50" relative="1" as="geometry">
            <mxPoint as="sourcePoint" />
            <mxPoint x="20" as="targetPoint" />
          </mxGeometry>
        </mxCell>
        <mxCell id="9p8t9NVOShXelaTlAj5N-255" value="" style="group;strokeWidth=2;" parent="1" vertex="1" connectable="0">
          <mxGeometry x="530" y="280" width="40" height="40" as="geometry" />
        </mxCell>
        <mxCell id="9p8t9NVOShXelaTlAj5N-256" value="" style="group;strokeWidth=2;" parent="9p8t9NVOShXelaTlAj5N-255" vertex="1" connectable="0">
          <mxGeometry x="20" width="20" height="40" as="geometry" />
        </mxCell>
        <mxCell id="9p8t9NVOShXelaTlAj5N-257" value="" style="endArrow=none;html=1;rounded=0;strokeWidth=2;" parent="9p8t9NVOShXelaTlAj5N-256" edge="1">
          <mxGeometry width="50" height="50" relative="1" as="geometry">
            <mxPoint y="40" as="sourcePoint" />
            <mxPoint x="20" as="targetPoint" />
          </mxGeometry>
        </mxCell>
        <mxCell id="9p8t9NVOShXelaTlAj5N-258" value="" style="endArrow=none;html=1;rounded=0;strokeWidth=2;" parent="9p8t9NVOShXelaTlAj5N-256" edge="1">
          <mxGeometry width="50" height="50" relative="1" as="geometry">
            <mxPoint x="20" y="40" as="sourcePoint" />
            <mxPoint as="targetPoint" />
          </mxGeometry>
        </mxCell>
        <mxCell id="9p8t9NVOShXelaTlAj5N-259" value="" style="endArrow=none;html=1;rounded=0;strokeWidth=2;" parent="9p8t9NVOShXelaTlAj5N-255" edge="1">
          <mxGeometry width="50" height="50" relative="1" as="geometry">
            <mxPoint y="40" as="sourcePoint" />
            <mxPoint x="20" y="40" as="targetPoint" />
          </mxGeometry>
        </mxCell>
        <mxCell id="9p8t9NVOShXelaTlAj5N-260" value="" style="endArrow=none;html=1;rounded=0;strokeWidth=2;" parent="9p8t9NVOShXelaTlAj5N-255" edge="1">
          <mxGeometry width="50" height="50" relative="1" as="geometry">
            <mxPoint as="sourcePoint" />
            <mxPoint x="20" as="targetPoint" />
          </mxGeometry>
        </mxCell>
        <mxCell id="9p8t9NVOShXelaTlAj5N-262" value="" style="group;strokeWidth=2;" parent="1" vertex="1" connectable="0">
          <mxGeometry x="570" y="280" width="40" height="40" as="geometry" />
        </mxCell>
        <mxCell id="9p8t9NVOShXelaTlAj5N-263" value="" style="group;strokeWidth=2;" parent="9p8t9NVOShXelaTlAj5N-262" vertex="1" connectable="0">
          <mxGeometry x="20" width="20" height="40" as="geometry" />
        </mxCell>
        <mxCell id="9p8t9NVOShXelaTlAj5N-264" value="" style="endArrow=none;html=1;rounded=0;strokeWidth=2;" parent="9p8t9NVOShXelaTlAj5N-263" edge="1">
          <mxGeometry width="50" height="50" relative="1" as="geometry">
            <mxPoint y="40" as="sourcePoint" />
            <mxPoint x="20" as="targetPoint" />
          </mxGeometry>
        </mxCell>
        <mxCell id="9p8t9NVOShXelaTlAj5N-265" value="" style="endArrow=none;html=1;rounded=0;strokeWidth=2;" parent="9p8t9NVOShXelaTlAj5N-263" edge="1">
          <mxGeometry width="50" height="50" relative="1" as="geometry">
            <mxPoint x="20" y="40" as="sourcePoint" />
            <mxPoint as="targetPoint" />
          </mxGeometry>
        </mxCell>
        <mxCell id="9p8t9NVOShXelaTlAj5N-266" value="" style="endArrow=none;html=1;rounded=0;strokeWidth=2;" parent="9p8t9NVOShXelaTlAj5N-262" edge="1">
          <mxGeometry width="50" height="50" relative="1" as="geometry">
            <mxPoint y="40" as="sourcePoint" />
            <mxPoint x="20" y="40" as="targetPoint" />
          </mxGeometry>
        </mxCell>
        <mxCell id="9p8t9NVOShXelaTlAj5N-267" value="" style="endArrow=none;html=1;rounded=0;strokeWidth=2;" parent="9p8t9NVOShXelaTlAj5N-262" edge="1">
          <mxGeometry width="50" height="50" relative="1" as="geometry">
            <mxPoint as="sourcePoint" />
            <mxPoint x="20" as="targetPoint" />
          </mxGeometry>
        </mxCell>
        <mxCell id="9p8t9NVOShXelaTlAj5N-269" value="" style="group;strokeWidth=2;" parent="1" vertex="1" connectable="0">
          <mxGeometry x="610" y="280" width="40" height="40" as="geometry" />
        </mxCell>
        <mxCell id="9p8t9NVOShXelaTlAj5N-270" value="" style="group;strokeWidth=2;" parent="9p8t9NVOShXelaTlAj5N-269" vertex="1" connectable="0">
          <mxGeometry x="20" width="20" height="40" as="geometry" />
        </mxCell>
        <mxCell id="9p8t9NVOShXelaTlAj5N-271" value="" style="endArrow=none;html=1;rounded=0;strokeWidth=2;" parent="9p8t9NVOShXelaTlAj5N-270" edge="1">
          <mxGeometry width="50" height="50" relative="1" as="geometry">
            <mxPoint y="40" as="sourcePoint" />
            <mxPoint x="20" as="targetPoint" />
          </mxGeometry>
        </mxCell>
        <mxCell id="9p8t9NVOShXelaTlAj5N-272" value="" style="endArrow=none;html=1;rounded=0;strokeWidth=2;" parent="9p8t9NVOShXelaTlAj5N-270" edge="1">
          <mxGeometry width="50" height="50" relative="1" as="geometry">
            <mxPoint x="20" y="40" as="sourcePoint" />
            <mxPoint as="targetPoint" />
          </mxGeometry>
        </mxCell>
        <mxCell id="9p8t9NVOShXelaTlAj5N-273" value="" style="endArrow=none;html=1;rounded=0;strokeWidth=2;" parent="9p8t9NVOShXelaTlAj5N-269" edge="1">
          <mxGeometry width="50" height="50" relative="1" as="geometry">
            <mxPoint y="40" as="sourcePoint" />
            <mxPoint x="20" y="40" as="targetPoint" />
          </mxGeometry>
        </mxCell>
        <mxCell id="9p8t9NVOShXelaTlAj5N-274" value="" style="endArrow=none;html=1;rounded=0;strokeWidth=2;" parent="9p8t9NVOShXelaTlAj5N-269" edge="1">
          <mxGeometry width="50" height="50" relative="1" as="geometry">
            <mxPoint as="sourcePoint" />
            <mxPoint x="20" as="targetPoint" />
          </mxGeometry>
        </mxCell>
        <mxCell id="9p8t9NVOShXelaTlAj5N-275" value="&lt;font style=&quot;font-size: 18px;&quot;&gt;$$...$$&lt;/font&gt;" style="text;html=1;align=center;verticalAlign=middle;whiteSpace=wrap;rounded=0;" parent="9p8t9NVOShXelaTlAj5N-269" vertex="1">
          <mxGeometry x="-20" y="1" width="60" height="30" as="geometry" />
        </mxCell>
        <mxCell id="9p8t9NVOShXelaTlAj5N-276" value="" style="group;strokeWidth=2;" parent="1" vertex="1" connectable="0">
          <mxGeometry x="650" y="280" width="40" height="40" as="geometry" />
        </mxCell>
        <mxCell id="9p8t9NVOShXelaTlAj5N-277" value="" style="group;strokeWidth=2;" parent="9p8t9NVOShXelaTlAj5N-276" vertex="1" connectable="0">
          <mxGeometry x="20" width="20" height="40" as="geometry" />
        </mxCell>
        <mxCell id="9p8t9NVOShXelaTlAj5N-278" value="" style="endArrow=none;html=1;rounded=0;strokeWidth=2;" parent="9p8t9NVOShXelaTlAj5N-277" edge="1">
          <mxGeometry width="50" height="50" relative="1" as="geometry">
            <mxPoint y="40" as="sourcePoint" />
            <mxPoint x="20" as="targetPoint" />
          </mxGeometry>
        </mxCell>
        <mxCell id="9p8t9NVOShXelaTlAj5N-279" value="" style="endArrow=none;html=1;rounded=0;strokeWidth=2;" parent="9p8t9NVOShXelaTlAj5N-277" edge="1">
          <mxGeometry width="50" height="50" relative="1" as="geometry">
            <mxPoint x="20" y="40" as="sourcePoint" />
            <mxPoint as="targetPoint" />
          </mxGeometry>
        </mxCell>
        <mxCell id="9p8t9NVOShXelaTlAj5N-280" value="" style="endArrow=none;html=1;rounded=0;strokeWidth=2;" parent="9p8t9NVOShXelaTlAj5N-276" edge="1">
          <mxGeometry width="50" height="50" relative="1" as="geometry">
            <mxPoint y="40" as="sourcePoint" />
            <mxPoint x="20" y="40" as="targetPoint" />
          </mxGeometry>
        </mxCell>
        <mxCell id="9p8t9NVOShXelaTlAj5N-281" value="" style="endArrow=none;html=1;rounded=0;strokeWidth=2;" parent="9p8t9NVOShXelaTlAj5N-276" edge="1">
          <mxGeometry width="50" height="50" relative="1" as="geometry">
            <mxPoint as="sourcePoint" />
            <mxPoint x="20" as="targetPoint" />
          </mxGeometry>
        </mxCell>
        <mxCell id="9p8t9NVOShXelaTlAj5N-283" value="" style="group;strokeWidth=2;" parent="1" vertex="1" connectable="0">
          <mxGeometry x="690" y="280" width="40" height="40" as="geometry" />
        </mxCell>
        <mxCell id="9p8t9NVOShXelaTlAj5N-284" value="" style="group;strokeWidth=2;" parent="9p8t9NVOShXelaTlAj5N-283" vertex="1" connectable="0">
          <mxGeometry x="20" width="20" height="40" as="geometry" />
        </mxCell>
        <mxCell id="9p8t9NVOShXelaTlAj5N-285" value="" style="endArrow=none;html=1;rounded=0;strokeWidth=2;" parent="9p8t9NVOShXelaTlAj5N-284" edge="1">
          <mxGeometry width="50" height="50" relative="1" as="geometry">
            <mxPoint y="40" as="sourcePoint" />
            <mxPoint x="20" as="targetPoint" />
          </mxGeometry>
        </mxCell>
        <mxCell id="9p8t9NVOShXelaTlAj5N-286" value="" style="endArrow=none;html=1;rounded=0;strokeWidth=2;" parent="9p8t9NVOShXelaTlAj5N-284" edge="1">
          <mxGeometry width="50" height="50" relative="1" as="geometry">
            <mxPoint x="20" y="40" as="sourcePoint" />
            <mxPoint as="targetPoint" />
          </mxGeometry>
        </mxCell>
        <mxCell id="9p8t9NVOShXelaTlAj5N-287" value="" style="endArrow=none;html=1;rounded=0;strokeWidth=2;strokeColor=#FF0000;" parent="9p8t9NVOShXelaTlAj5N-283" edge="1">
          <mxGeometry width="50" height="50" relative="1" as="geometry">
            <mxPoint y="40" as="sourcePoint" />
            <mxPoint x="20" y="40" as="targetPoint" />
          </mxGeometry>
        </mxCell>
        <mxCell id="9p8t9NVOShXelaTlAj5N-288" value="" style="endArrow=none;html=1;rounded=0;strokeWidth=2;strokeColor=#FF0000;" parent="9p8t9NVOShXelaTlAj5N-283" edge="1">
          <mxGeometry width="50" height="50" relative="1" as="geometry">
            <mxPoint as="sourcePoint" />
            <mxPoint x="20" as="targetPoint" />
          </mxGeometry>
        </mxCell>
        <mxCell id="9p8t9NVOShXelaTlAj5N-249" value="&lt;font color=&quot;#ff0000&quot;&gt;&lt;b&gt;$$n+nL+\frac{(1+L)L}{2}$$&lt;/b&gt;&lt;/font&gt;" style="text;html=1;align=center;verticalAlign=middle;whiteSpace=wrap;rounded=0;" parent="1" vertex="1">
          <mxGeometry x="470" y="330" width="60" height="30" as="geometry" />
        </mxCell>
        <mxCell id="9p8t9NVOShXelaTlAj5N-214" value="$$n$$" style="text;html=1;align=center;verticalAlign=middle;whiteSpace=wrap;rounded=0;" parent="1" vertex="1">
          <mxGeometry x="270" y="285" width="60" height="30" as="geometry" />
        </mxCell>
        <mxCell id="9p8t9NVOShXelaTlAj5N-291" value="&lt;font style=&quot;font-size: 10px;&quot;&gt;$$2n+1$$&lt;/font&gt;" style="text;html=1;align=center;verticalAlign=middle;whiteSpace=wrap;rounded=0;" parent="1" vertex="1">
          <mxGeometry x="310" y="285" width="60" height="30" as="geometry" />
        </mxCell>
        <mxCell id="9p8t9NVOShXelaTlAj5N-292" value="&lt;font style=&quot;font-size: 10px;&quot;&gt;$$2n+3$$&lt;/font&gt;" style="text;html=1;align=center;verticalAlign=middle;whiteSpace=wrap;rounded=0;" parent="1" vertex="1">
          <mxGeometry x="350" y="285" width="60" height="30" as="geometry" />
        </mxCell>
        <mxCell id="9p8t9NVOShXelaTlAj5N-294" value="&lt;font color=&quot;#ff0000&quot;&gt;&lt;b&gt;$$n+2nL+\frac{(1+2L)2L}{2}$$&lt;/b&gt;&lt;/font&gt;" style="text;html=1;align=center;verticalAlign=middle;whiteSpace=wrap;rounded=0;" parent="1" vertex="1">
          <mxGeometry x="720" y="330" width="60" height="30" as="geometry" />
        </mxCell>
        <mxCell id="9p8t9NVOShXelaTlAj5N-333" value="" style="group;strokeWidth=2;" parent="1" vertex="1" connectable="0">
          <mxGeometry x="490" y="400" width="40" height="40" as="geometry" />
        </mxCell>
        <mxCell id="9p8t9NVOShXelaTlAj5N-334" value="" style="group;strokeWidth=2;" parent="9p8t9NVOShXelaTlAj5N-333" vertex="1" connectable="0">
          <mxGeometry x="20" width="20" height="40" as="geometry" />
        </mxCell>
        <mxCell id="9p8t9NVOShXelaTlAj5N-335" value="" style="endArrow=none;html=1;rounded=0;strokeWidth=2;" parent="9p8t9NVOShXelaTlAj5N-334" edge="1">
          <mxGeometry width="50" height="50" relative="1" as="geometry">
            <mxPoint y="40" as="sourcePoint" />
            <mxPoint x="20" as="targetPoint" />
          </mxGeometry>
        </mxCell>
        <mxCell id="9p8t9NVOShXelaTlAj5N-336" value="" style="endArrow=none;html=1;rounded=0;strokeWidth=2;" parent="9p8t9NVOShXelaTlAj5N-334" edge="1">
          <mxGeometry width="50" height="50" relative="1" as="geometry">
            <mxPoint x="20" y="40" as="sourcePoint" />
            <mxPoint as="targetPoint" />
          </mxGeometry>
        </mxCell>
        <mxCell id="9p8t9NVOShXelaTlAj5N-337" value="" style="endArrow=none;html=1;rounded=0;strokeWidth=2;strokeColor=#FF0000;" parent="9p8t9NVOShXelaTlAj5N-333" edge="1">
          <mxGeometry width="50" height="50" relative="1" as="geometry">
            <mxPoint y="40" as="sourcePoint" />
            <mxPoint x="20" y="40" as="targetPoint" />
          </mxGeometry>
        </mxCell>
        <mxCell id="9p8t9NVOShXelaTlAj5N-338" value="" style="endArrow=none;html=1;rounded=0;strokeWidth=2;strokeColor=#FF0000;" parent="9p8t9NVOShXelaTlAj5N-333" edge="1">
          <mxGeometry width="50" height="50" relative="1" as="geometry">
            <mxPoint as="sourcePoint" />
            <mxPoint x="20" as="targetPoint" />
          </mxGeometry>
        </mxCell>
        <mxCell id="9p8t9NVOShXelaTlAj5N-382" value="" style="endArrow=none;html=1;rounded=0;strokeWidth=2;strokeColor=#00CC00;" parent="1" edge="1">
          <mxGeometry width="50" height="50" relative="1" as="geometry">
            <mxPoint x="330" y="399.84" as="sourcePoint" />
            <mxPoint x="490" y="400" as="targetPoint" />
          </mxGeometry>
        </mxCell>
        <mxCell id="9p8t9NVOShXelaTlAj5N-383" value="" style="endArrow=none;html=1;rounded=0;strokeWidth=2;strokeColor=#00CC00;" parent="1" edge="1">
          <mxGeometry width="50" height="50" relative="1" as="geometry">
            <mxPoint x="330" y="439.66999999999996" as="sourcePoint" />
            <mxPoint x="490" y="440" as="targetPoint" />
          </mxGeometry>
        </mxCell>
        <mxCell id="9p8t9NVOShXelaTlAj5N-339" value="&lt;font size=&quot;1&quot; color=&quot;#ff0000&quot;&gt;&lt;b style=&quot;font-size: 16px;&quot;&gt;$$n+L$$&lt;/b&gt;&lt;/font&gt;" style="text;html=1;align=center;verticalAlign=middle;whiteSpace=wrap;rounded=0;" parent="1" vertex="1">
          <mxGeometry x="370" y="405" width="60" height="30" as="geometry" />
        </mxCell>
        <mxCell id="9p8t9NVOShXelaTlAj5N-384" value="" style="group;strokeWidth=2;" parent="1" vertex="1" connectable="0">
          <mxGeometry x="690" y="399.76" width="40" height="40" as="geometry" />
        </mxCell>
        <mxCell id="9p8t9NVOShXelaTlAj5N-385" value="" style="group;strokeWidth=2;" parent="9p8t9NVOShXelaTlAj5N-384" vertex="1" connectable="0">
          <mxGeometry x="20" width="20" height="40" as="geometry" />
        </mxCell>
        <mxCell id="9p8t9NVOShXelaTlAj5N-386" value="" style="endArrow=none;html=1;rounded=0;strokeWidth=2;" parent="9p8t9NVOShXelaTlAj5N-385" edge="1">
          <mxGeometry width="50" height="50" relative="1" as="geometry">
            <mxPoint y="40" as="sourcePoint" />
            <mxPoint x="20" as="targetPoint" />
          </mxGeometry>
        </mxCell>
        <mxCell id="9p8t9NVOShXelaTlAj5N-387" value="" style="endArrow=none;html=1;rounded=0;strokeWidth=2;" parent="9p8t9NVOShXelaTlAj5N-385" edge="1">
          <mxGeometry width="50" height="50" relative="1" as="geometry">
            <mxPoint x="20" y="40" as="sourcePoint" />
            <mxPoint as="targetPoint" />
          </mxGeometry>
        </mxCell>
        <mxCell id="9p8t9NVOShXelaTlAj5N-388" value="" style="endArrow=none;html=1;rounded=0;strokeWidth=2;strokeColor=#FF0000;" parent="9p8t9NVOShXelaTlAj5N-384" edge="1">
          <mxGeometry width="50" height="50" relative="1" as="geometry">
            <mxPoint y="40" as="sourcePoint" />
            <mxPoint x="20" y="40" as="targetPoint" />
          </mxGeometry>
        </mxCell>
        <mxCell id="9p8t9NVOShXelaTlAj5N-389" value="" style="endArrow=none;html=1;rounded=0;strokeWidth=2;strokeColor=#FF0000;" parent="9p8t9NVOShXelaTlAj5N-384" edge="1">
          <mxGeometry width="50" height="50" relative="1" as="geometry">
            <mxPoint as="sourcePoint" />
            <mxPoint x="20" as="targetPoint" />
          </mxGeometry>
        </mxCell>
        <mxCell id="9p8t9NVOShXelaTlAj5N-390" value="" style="endArrow=none;html=1;rounded=0;strokeWidth=2;strokeColor=#0000FF;" parent="1" edge="1">
          <mxGeometry width="50" height="50" relative="1" as="geometry">
            <mxPoint x="530" y="399.59999999999997" as="sourcePoint" />
            <mxPoint x="690" y="399.76" as="targetPoint" />
          </mxGeometry>
        </mxCell>
        <mxCell id="9p8t9NVOShXelaTlAj5N-391" value="" style="endArrow=none;html=1;rounded=0;strokeWidth=2;strokeColor=#0000FF;" parent="1" edge="1">
          <mxGeometry width="50" height="50" relative="1" as="geometry">
            <mxPoint x="530" y="439.42999999999995" as="sourcePoint" />
            <mxPoint x="690" y="439.76" as="targetPoint" />
          </mxGeometry>
        </mxCell>
        <mxCell id="9p8t9NVOShXelaTlAj5N-392" value="&lt;font size=&quot;1&quot; color=&quot;#ff0000&quot;&gt;&lt;b style=&quot;font-size: 16px;&quot;&gt;$$n+2L$$&lt;/b&gt;&lt;/font&gt;" style="text;html=1;align=center;verticalAlign=middle;whiteSpace=wrap;rounded=0;" parent="1" vertex="1">
          <mxGeometry x="590" y="405" width="60" height="30" as="geometry" />
        </mxCell>
        <mxCell id="9p8t9NVOShXelaTlAj5N-393" value="&lt;font color=&quot;#ea6b66&quot; style=&quot;font-size: 16px;&quot;&gt;freq integrator&lt;/font&gt;" style="text;html=1;align=center;verticalAlign=middle;whiteSpace=wrap;rounded=0;" parent="1" vertex="1">
          <mxGeometry x="150" y="404.76" width="100" height="30" as="geometry" />
        </mxCell>
        <mxCell id="9p8t9NVOShXelaTlAj5N-299" value="" style="group;strokeWidth=2;" parent="1" vertex="1" connectable="0">
          <mxGeometry x="310" y="400" width="20" height="40" as="geometry" />
        </mxCell>
        <mxCell id="9p8t9NVOShXelaTlAj5N-300" value="" style="endArrow=none;html=1;rounded=0;strokeWidth=2;" parent="9p8t9NVOShXelaTlAj5N-299" edge="1">
          <mxGeometry width="50" height="50" relative="1" as="geometry">
            <mxPoint y="40" as="sourcePoint" />
            <mxPoint x="20" as="targetPoint" />
          </mxGeometry>
        </mxCell>
        <mxCell id="9p8t9NVOShXelaTlAj5N-301" value="" style="endArrow=none;html=1;rounded=0;strokeWidth=2;" parent="9p8t9NVOShXelaTlAj5N-299" edge="1">
          <mxGeometry width="50" height="50" relative="1" as="geometry">
            <mxPoint x="20" y="40" as="sourcePoint" />
            <mxPoint as="targetPoint" />
          </mxGeometry>
        </mxCell>
        <mxCell id="9p8t9NVOShXelaTlAj5N-302" value="" style="endArrow=none;html=1;rounded=0;strokeWidth=2;" parent="1" edge="1">
          <mxGeometry width="50" height="50" relative="1" as="geometry">
            <mxPoint x="270" y="440" as="sourcePoint" />
            <mxPoint x="310" y="440" as="targetPoint" />
          </mxGeometry>
        </mxCell>
        <mxCell id="9p8t9NVOShXelaTlAj5N-303" value="" style="endArrow=none;html=1;rounded=0;strokeWidth=2;" parent="1" edge="1">
          <mxGeometry width="50" height="50" relative="1" as="geometry">
            <mxPoint x="270" y="400" as="sourcePoint" />
            <mxPoint x="310" y="400" as="targetPoint" />
          </mxGeometry>
        </mxCell>
        <mxCell id="9p8t9NVOShXelaTlAj5N-304" value="&lt;font style=&quot;font-size: 16px;&quot;&gt;$$n$$&lt;/font&gt;" style="text;html=1;align=center;verticalAlign=middle;whiteSpace=wrap;rounded=0;" parent="1" vertex="1">
          <mxGeometry x="270" y="405" width="60" height="30" as="geometry" />
        </mxCell>
        <mxCell id="9p8t9NVOShXelaTlAj5N-394" value="&lt;font color=&quot;#ea6b66&quot; style=&quot;font-size: 16px;&quot;&gt;phase integrator&lt;/font&gt;" style="text;html=1;align=center;verticalAlign=middle;whiteSpace=wrap;rounded=0;" parent="1" vertex="1">
          <mxGeometry x="150" y="484" width="100" height="30" as="geometry" />
        </mxCell>
        <mxCell id="9p8t9NVOShXelaTlAj5N-395" value="" style="group;strokeWidth=2;" parent="1" vertex="1" connectable="0">
          <mxGeometry x="690" y="479.92999999999995" width="40" height="40" as="geometry" />
        </mxCell>
        <mxCell id="9p8t9NVOShXelaTlAj5N-396" value="" style="group;strokeWidth=2;" parent="9p8t9NVOShXelaTlAj5N-395" vertex="1" connectable="0">
          <mxGeometry x="20" width="20" height="40" as="geometry" />
        </mxCell>
        <mxCell id="9p8t9NVOShXelaTlAj5N-397" value="" style="endArrow=none;html=1;rounded=0;strokeWidth=2;" parent="9p8t9NVOShXelaTlAj5N-396" edge="1">
          <mxGeometry width="50" height="50" relative="1" as="geometry">
            <mxPoint y="40" as="sourcePoint" />
            <mxPoint x="20" as="targetPoint" />
          </mxGeometry>
        </mxCell>
        <mxCell id="9p8t9NVOShXelaTlAj5N-398" value="" style="endArrow=none;html=1;rounded=0;strokeWidth=2;" parent="9p8t9NVOShXelaTlAj5N-396" edge="1">
          <mxGeometry width="50" height="50" relative="1" as="geometry">
            <mxPoint x="20" y="40" as="sourcePoint" />
            <mxPoint as="targetPoint" />
          </mxGeometry>
        </mxCell>
        <mxCell id="9p8t9NVOShXelaTlAj5N-399" value="" style="endArrow=none;html=1;rounded=0;strokeWidth=2;strokeColor=#FF0000;" parent="9p8t9NVOShXelaTlAj5N-395" edge="1">
          <mxGeometry width="50" height="50" relative="1" as="geometry">
            <mxPoint y="40" as="sourcePoint" />
            <mxPoint x="20" y="40" as="targetPoint" />
          </mxGeometry>
        </mxCell>
        <mxCell id="9p8t9NVOShXelaTlAj5N-400" value="" style="endArrow=none;html=1;rounded=0;strokeWidth=2;strokeColor=#FF0000;" parent="9p8t9NVOShXelaTlAj5N-395" edge="1">
          <mxGeometry width="50" height="50" relative="1" as="geometry">
            <mxPoint as="sourcePoint" />
            <mxPoint x="20" as="targetPoint" />
          </mxGeometry>
        </mxCell>
        <mxCell id="9p8t9NVOShXelaTlAj5N-401" value="" style="endArrow=none;html=1;rounded=0;strokeWidth=2;" parent="1" edge="1">
          <mxGeometry width="50" height="50" relative="1" as="geometry">
            <mxPoint x="530" y="479.77" as="sourcePoint" />
            <mxPoint x="690" y="479.92999999999995" as="targetPoint" />
          </mxGeometry>
        </mxCell>
        <mxCell id="9p8t9NVOShXelaTlAj5N-402" value="" style="endArrow=none;html=1;rounded=0;strokeWidth=2;" parent="1" edge="1">
          <mxGeometry width="50" height="50" relative="1" as="geometry">
            <mxPoint x="530" y="519.5999999999999" as="sourcePoint" />
            <mxPoint x="690" y="519.93" as="targetPoint" />
          </mxGeometry>
        </mxCell>
        <mxCell id="9p8t9NVOShXelaTlAj5N-403" value="&lt;font size=&quot;1&quot; color=&quot;#ff0000&quot;&gt;&lt;b style=&quot;font-size: 16px;&quot;&gt;$$2n+L$$&lt;/b&gt;&lt;/font&gt;" style="text;html=1;align=center;verticalAlign=middle;whiteSpace=wrap;rounded=0;" parent="1" vertex="1">
          <mxGeometry x="590" y="484.68999999999994" width="60" height="30" as="geometry" />
        </mxCell>
        <mxCell id="9p8t9NVOShXelaTlAj5N-410" value="" style="endArrow=none;html=1;rounded=0;strokeWidth=2;" parent="1" edge="1">
          <mxGeometry width="50" height="50" relative="1" as="geometry">
            <mxPoint x="730" y="479.53" as="sourcePoint" />
            <mxPoint x="890" y="479.68999999999994" as="targetPoint" />
          </mxGeometry>
        </mxCell>
        <mxCell id="9p8t9NVOShXelaTlAj5N-411" value="" style="endArrow=none;html=1;rounded=0;strokeWidth=2;" parent="1" edge="1">
          <mxGeometry width="50" height="50" relative="1" as="geometry">
            <mxPoint x="730" y="519.3599999999999" as="sourcePoint" />
            <mxPoint x="890" y="519.6899999999999" as="targetPoint" />
          </mxGeometry>
        </mxCell>
        <mxCell id="9p8t9NVOShXelaTlAj5N-412" value="&lt;font size=&quot;1&quot; color=&quot;#ff0000&quot;&gt;&lt;b style=&quot;font-size: 16px;&quot;&gt;$$3n+3L$$&lt;/b&gt;&lt;/font&gt;" style="text;html=1;align=center;verticalAlign=middle;whiteSpace=wrap;rounded=0;" parent="1" vertex="1">
          <mxGeometry x="790" y="484.92999999999995" width="60" height="30" as="geometry" />
        </mxCell>
        <mxCell id="9p8t9NVOShXelaTlAj5N-413" value="" style="group;strokeWidth=2;" parent="1" vertex="1" connectable="0">
          <mxGeometry x="510" y="480" width="20" height="40" as="geometry" />
        </mxCell>
        <mxCell id="9p8t9NVOShXelaTlAj5N-414" value="" style="endArrow=none;html=1;rounded=0;strokeWidth=2;" parent="9p8t9NVOShXelaTlAj5N-413" edge="1">
          <mxGeometry width="50" height="50" relative="1" as="geometry">
            <mxPoint y="40" as="sourcePoint" />
            <mxPoint x="20" as="targetPoint" />
          </mxGeometry>
        </mxCell>
        <mxCell id="9p8t9NVOShXelaTlAj5N-415" value="" style="endArrow=none;html=1;rounded=0;strokeWidth=2;" parent="9p8t9NVOShXelaTlAj5N-413" edge="1">
          <mxGeometry width="50" height="50" relative="1" as="geometry">
            <mxPoint x="20" y="40" as="sourcePoint" />
            <mxPoint as="targetPoint" />
          </mxGeometry>
        </mxCell>
        <mxCell id="9p8t9NVOShXelaTlAj5N-416" value="" style="endArrow=none;html=1;rounded=0;strokeWidth=2;strokeColor=#000000;" parent="1" edge="1">
          <mxGeometry width="50" height="50" relative="1" as="geometry">
            <mxPoint x="490" y="520.16" as="sourcePoint" />
            <mxPoint x="510" y="520.16" as="targetPoint" />
          </mxGeometry>
        </mxCell>
        <mxCell id="9p8t9NVOShXelaTlAj5N-417" value="" style="endArrow=none;html=1;rounded=0;strokeWidth=2;strokeColor=#000000;" parent="1" edge="1">
          <mxGeometry width="50" height="50" relative="1" as="geometry">
            <mxPoint x="490" y="480.15999999999997" as="sourcePoint" />
            <mxPoint x="510" y="480.15999999999997" as="targetPoint" />
          </mxGeometry>
        </mxCell>
        <mxCell id="9p8t9NVOShXelaTlAj5N-418" value="" style="endArrow=none;html=1;rounded=0;strokeWidth=2;" parent="1" edge="1">
          <mxGeometry width="50" height="50" relative="1" as="geometry">
            <mxPoint x="330" y="480" as="sourcePoint" />
            <mxPoint x="490" y="480.15999999999997" as="targetPoint" />
          </mxGeometry>
        </mxCell>
        <mxCell id="9p8t9NVOShXelaTlAj5N-419" value="" style="endArrow=none;html=1;rounded=0;strokeWidth=2;" parent="1" edge="1">
          <mxGeometry width="50" height="50" relative="1" as="geometry">
            <mxPoint x="330" y="519.8299999999999" as="sourcePoint" />
            <mxPoint x="490" y="520.16" as="targetPoint" />
          </mxGeometry>
        </mxCell>
        <mxCell id="9p8t9NVOShXelaTlAj5N-420" value="&lt;b style=&quot;&quot;&gt;&lt;font style=&quot;font-size: 16px;&quot;&gt;$$n$$&lt;/font&gt;&lt;/b&gt;" style="text;html=1;align=center;verticalAlign=middle;whiteSpace=wrap;rounded=0;" parent="1" vertex="1">
          <mxGeometry x="370" y="485.15999999999997" width="60" height="30" as="geometry" />
        </mxCell>
        <mxCell id="9p8t9NVOShXelaTlAj5N-421" value="" style="group;strokeWidth=2;" parent="1" vertex="1" connectable="0">
          <mxGeometry x="310" y="480.15999999999997" width="20" height="40" as="geometry" />
        </mxCell>
        <mxCell id="9p8t9NVOShXelaTlAj5N-422" value="" style="endArrow=none;html=1;rounded=0;strokeWidth=2;" parent="9p8t9NVOShXelaTlAj5N-421" edge="1">
          <mxGeometry width="50" height="50" relative="1" as="geometry">
            <mxPoint y="40" as="sourcePoint" />
            <mxPoint x="20" as="targetPoint" />
          </mxGeometry>
        </mxCell>
        <mxCell id="9p8t9NVOShXelaTlAj5N-423" value="" style="endArrow=none;html=1;rounded=0;strokeWidth=2;" parent="9p8t9NVOShXelaTlAj5N-421" edge="1">
          <mxGeometry width="50" height="50" relative="1" as="geometry">
            <mxPoint x="20" y="40" as="sourcePoint" />
            <mxPoint as="targetPoint" />
          </mxGeometry>
        </mxCell>
        <mxCell id="9p8t9NVOShXelaTlAj5N-424" value="" style="endArrow=none;html=1;rounded=0;strokeWidth=2;" parent="1" edge="1">
          <mxGeometry width="50" height="50" relative="1" as="geometry">
            <mxPoint x="270" y="520.16" as="sourcePoint" />
            <mxPoint x="310" y="520.16" as="targetPoint" />
          </mxGeometry>
        </mxCell>
        <mxCell id="9p8t9NVOShXelaTlAj5N-425" value="" style="endArrow=none;html=1;rounded=0;strokeWidth=2;" parent="1" edge="1">
          <mxGeometry width="50" height="50" relative="1" as="geometry">
            <mxPoint x="270" y="480.15999999999997" as="sourcePoint" />
            <mxPoint x="310" y="480.15999999999997" as="targetPoint" />
          </mxGeometry>
        </mxCell>
        <mxCell id="9p8t9NVOShXelaTlAj5N-426" value="&lt;font style=&quot;font-size: 16px;&quot;&gt;$$0$$&lt;/font&gt;" style="text;html=1;align=center;verticalAlign=middle;whiteSpace=wrap;rounded=0;" parent="1" vertex="1">
          <mxGeometry x="270" y="485.15999999999997" width="60" height="30" as="geometry" />
        </mxCell>
        <mxCell id="9p8t9NVOShXelaTlAj5N-428" value="" style="endArrow=none;html=1;rounded=0;strokeColor=#FF66FF;strokeWidth=3;startArrow=blockThin;startFill=1;" parent="1" edge="1">
          <mxGeometry width="50" height="50" relative="1" as="geometry">
            <mxPoint x="580" y="359.76" as="sourcePoint" />
            <mxPoint x="800" y="399.76" as="targetPoint" />
          </mxGeometry>
        </mxCell>
        <mxCell id="9p8t9NVOShXelaTlAj5N-429" value="" style="endArrow=none;html=1;rounded=0;strokeColor=#FF66FF;strokeWidth=3;startArrow=blockThin;startFill=1;" parent="1" edge="1">
          <mxGeometry width="50" height="50" relative="1" as="geometry">
            <mxPoint x="740" y="365" as="sourcePoint" />
            <mxPoint x="800" y="400" as="targetPoint" />
          </mxGeometry>
        </mxCell>
        <mxCell id="9p8t9NVOShXelaTlAj5N-434" value="&lt;font color=&quot;#ff00ff&quot; style=&quot;font-size: 14px;&quot;&gt;$$\Delta P_0 = nL+\alpha L +\beta L^2$$&lt;/font&gt;" style="text;html=1;align=center;verticalAlign=middle;whiteSpace=wrap;rounded=0;" parent="1" vertex="1">
          <mxGeometry x="790" y="400" width="60" height="30" as="geometry" />
        </mxCell>
        <mxCell id="9p8t9NVOShXelaTlAj5N-435" value="" style="endArrow=none;html=1;rounded=0;strokeColor=#FF66FF;strokeWidth=3;startArrow=blockThin;startFill=1;" parent="1" edge="1">
          <mxGeometry width="50" height="50" relative="1" as="geometry">
            <mxPoint x="650" y="530" as="sourcePoint" />
            <mxPoint x="800" y="570" as="targetPoint" />
          </mxGeometry>
        </mxCell>
        <mxCell id="9p8t9NVOShXelaTlAj5N-436" value="" style="endArrow=none;html=1;rounded=0;strokeColor=#FF66FF;strokeWidth=3;startArrow=blockThin;startFill=1;" parent="1" edge="1">
          <mxGeometry width="50" height="50" relative="1" as="geometry">
            <mxPoint x="770" y="530" as="sourcePoint" />
            <mxPoint x="800" y="570" as="targetPoint" />
          </mxGeometry>
        </mxCell>
        <mxCell id="9p8t9NVOShXelaTlAj5N-437" value="&lt;font color=&quot;#ff00ff&quot; style=&quot;font-size: 14px;&quot;&gt;$$\Delta P_1 = n+2L$$&lt;/font&gt;" style="text;html=1;align=center;verticalAlign=middle;whiteSpace=wrap;rounded=0;" parent="1" vertex="1">
          <mxGeometry x="810" y="570" width="60" height="30" as="geometry" />
        </mxCell>
      </root>
    </mxGraphModel>
  </diagram>
</mxfile>
